<svg xmlns="http://www.w3.org/2000/svg" viewBox="0 0 128 128" width="128" height="128">
  <defs>
    <filter id="shP" x="-15%" y="-15%" width="130%" height="130%">
      <feDropShadow dx="0" dy="2" stdDeviation="4" flood-opacity="0.4"/>
    </filter>
    <linearGradient id="gP" x1="0%" y1="0%" x2="0%" y2="100%">
      <stop offset="0%" style="stop-color:#60a5fa"/>
      <stop offset="100%" style="stop-color:#1d4ed8"/>
    </linearGradient>
  </defs>
  <circle cx="64" cy="64" r="56" fill="url(#gP)" stroke="#ffffff" stroke-width="6" filter="url(#shP)"/>
  <!-- Shield -->
  <path
    fill="#ffffff"
    d="M64 30c-8 0-14 4-14 10v18c0 12 8 22 14 28 6-6 14-16 14-28V40c0-6-6-10-14-10zm0 6c4 0 8 2 8 4v18c0 8-5 15-8 18-3-3-8-10-8-18V40c0-2 4-4 8-4z"
  />
  <path fill="#1e40af" d="M64 44c-2 0-4 1-4 2v12c0 4 2 8 4 10 2-2 4-6 4-10V46c0-1-2-2-4-2z"/>
</svg>
